<?xml version="1.0" encoding="UTF-8" standalone="no"?>
<svg width="24px" height="41px" viewBox="0 0 24 41" version="1.1" xmlns="http://www.w3.org/2000/svg" xmlns:xlink="http://www.w3.org/1999/xlink" xmlns:sketch="http://www.bohemiancoding.com/sketch/ns">
    <!-- Generator: Sketch 3.4.4 (17249) - http://www.bohemiancoding.com/sketch -->
    <title>Shape</title>
    <desc>Created with Sketch.</desc>
    <defs></defs>
    <g id="Page-1" stroke="none" stroke-width="1" fill="none" fill-rule="evenodd" sketch:type="MSPage">
        <g id="bishop_black" sketch:type="MSLayerGroup" transform="translate(0.000000, 1.000000)" stroke-width="0.6" stroke="#787878" fill="#000000">
            <g id="Page-1" sketch:type="MSShapeGroup">
                <g id="bishop_black">
                    <g id="Page-1">
                        <g id="Shape">
                            <path d="M22.186,38.382 C22.343,38.736 22.393,39.471 22.393,39.471 L0.988,39.471 C0.988,39.471 0.992,38.731 1.175,38.36 C1.359,37.987 1.901,37.641 1.901,37.641 L1.997,37.641 C2.001,37.563 2.011,37.477 2.028,37.386 L2.025,37.386 C1.164,36.423 0.377,34.994 0.5,33.522 C0.623,32.045 2.152,30.565 3.004,29.418 L3.015,29.418 C3.034,29.329 3.058,29.245 3.087,29.163 C2.86,29.155 2.183,28.805 2.323,28.346 C2.488,27.775 3.222,27.634 3.435,27.634 L3.508,27.634 C3.572,27.55 3.69,27.458 3.895,27.359 C5.692,24.986 8.978,21.613 8.033,18.588 C7.155,18.588 6.488,18.588 6.453,18.587 C6.307,18.576 5.273,18.198 5.365,17.596 C5.472,16.843 6.54,16.574 6.678,16.574 L7.622,16.574 C7.622,16.574 7.523,13.933 7.471,13.858 C6.94,13.802 6.533,13.491 6.533,13.111 C6.533,12.692 7.024,12.348 7.634,12.348 C5.79,11.219 5.025,8.997 5.8,7.837 C6.462,6.85 7.446,6.068 8.263,5.215 L9.685,7.266 C9.685,7.266 9.8,7.642 10.318,7.632 C10.902,7.62 10.568,7.219 10.568,7.219 L8.777,4.657 C9.293,4.151 10.382,3.126 11.083,2.447 C10.421,2.227 10.17,1.778 10.17,1.238 C10.17,0.488 10.811,0 11.903,0 C12.995,0 13.837,0.488 13.837,1.236 C13.837,1.776 13.462,2.225 12.799,2.445 C15.361,4.926 16.721,5.967 17.972,7.837 C18.748,8.997 18.091,11.219 16.245,12.348 C16.853,12.348 17.347,12.692 17.347,13.111 C17.347,13.523 16.872,13.854 16.282,13.867 L16.235,16.574 L17.568,16.574 C17.707,16.574 18.715,16.895 18.823,17.65 C18.916,18.253 17.941,18.578 17.795,18.588 C17.755,18.589 16.801,18.589 15.637,18.589 C15.754,20.701 19.504,26.886 20.223,27.638 L20.296,27.638 C20.51,27.638 21.294,27.76 21.459,28.334 C21.601,28.79 20.647,29.168 20.647,29.168 C20.642,29.168 22.869,32.168 22.975,33.658 C23.078,35.06 22.281,36.334 21.45,37.285 C21.492,37.417 21.518,37.547 21.513,37.668 C21.628,37.749 22.05,38.08 22.186,38.382 L22.186,38.382 L22.186,38.382 L22.186,38.382 Z"></path>
                        </g>
                    </g>
                </g>
            </g>
        </g>
    </g>
</svg>