<?xml version="1.0" encoding="UTF-8" standalone="no"?>
<svg width="16px" height="43px" viewBox="0 0 16 43" version="1.1" xmlns="http://www.w3.org/2000/svg" xmlns:xlink="http://www.w3.org/1999/xlink" xmlns:sketch="http://www.bohemiancoding.com/sketch/ns">
    <!-- Generator: Sketch 3.4.4 (17249) - http://www.bohemiancoding.com/sketch -->
    <title>Shape</title>
    <desc>Created with Sketch.</desc>
    <defs></defs>
    <g id="Page-1" stroke="none" stroke-width="1" fill="none" fill-rule="evenodd" sketch:type="MSPage">
        <g id="king_black" sketch:type="MSLayerGroup" transform="translate(0.000000, 1.000000)" stroke-width="0.4" stroke="#787878" fill="#000000">
            <g id="Page-1" sketch:type="MSShapeGroup">
                <path d="M14.6194783,40.452 C14.7254783,40.735 14.7624783,41.325 14.7624783,41.325 L0.575478314,41.325 C0.575478314,41.325 0.577478314,40.73 0.702478314,40.429 C0.827478314,40.13 1.20047831,39.853 1.20047831,39.853 L1.25047831,39.853 C1.27047831,39.79 1.28947831,39.72 1.30647831,39.65 L1.28447831,39.65 C0.693478314,38.878 0.337478314,37.73 0.422478314,36.546 C0.507478314,35.362 1.37147831,34.167 1.95447831,33.247 L1.97747831,33.157 C1.95647831,33.089 1.98347831,33.105 1.97247831,33.034 C1.80347831,32.991 1.48847831,32.714 1.57847831,32.374 C1.69147831,31.913 2.10447831,31.812 2.25047831,31.812 L2.32347831,31.812 L2.34947831,31.72 L2.34447831,31.627 C3.78647831,28.334 4.95047831,26.523 5.34147831,20.306 C5.29947831,20.232 5.25747831,20.158 5.21947831,20.084 C4.46747831,20.084 3.84747831,20.084 3.81847831,20.082 C3.72047831,20.071 3.01747831,19.664 3.07947831,19.014 C3.15147831,18.202 3.87847831,17.909 3.97247831,17.909 L4.61247831,17.909 L4.82147831,14.209 C4.82147831,14.209 2.53747831,10.8 2.18347831,10.23 C1.92947831,9.817 1.69747831,9.285 1.69747831,8.758 C1.69747831,7.562 2.64847831,6.588 3.82047831,6.588 C4.15947831,6.588 4.68647831,6.589 5.02547831,6.589 L5.02547831,6.058 C5.02547831,5.713 5.29747831,5.436 5.63447831,5.436 L9.70447831,5.436 C10.0394783,5.436 10.3104783,5.713 10.3104783,6.058 L10.3104783,6.589 C10.6504783,6.589 11.1754783,6.588 11.5144783,6.588 C12.6874783,6.588 13.6374783,7.561 13.6374783,8.758 C13.6374783,9.283 13.4084783,9.817 13.1514783,10.23 C12.7974783,10.8 10.5434783,14.119 10.5434783,14.119 L10.7244783,17.911 L11.3794783,17.911 C11.4734783,17.911 12.1604783,18.26 12.2334783,19.074 C12.2954783,19.722 11.6324783,20.075 11.5354783,20.086 C11.5084783,20.088 10.8904783,20.088 10.1294783,20.088 C10.1184783,20.243 10.0824783,20.413 10.0154783,20.599 C10.4304783,26.578 11.7864783,28.39 13.2034783,31.631 L13.2064783,31.695 L13.2044783,31.811 L13.3244783,31.811 C13.4704783,31.811 13.8844783,31.914 13.9964783,32.373 C14.0944783,32.742 13.7194783,33.037 13.5634783,33.043 L13.4854783,33.119 C13.4934783,33.191 13.5474783,33.199 13.5434783,33.289 C14.2064783,34.295 14.8404783,35.59 14.9154783,36.775 C14.9814783,37.879 14.6764783,38.773 14.1424783,39.521 C14.1624783,39.65 14.1674783,39.769 14.1634783,39.875 C14.2444783,39.95 14.5264783,40.212 14.6194783,40.452 L14.6194783,40.452 L14.6194783,40.452 Z M5.82847831,3.601 C6.37447831,3.042 7.01947831,2.798 7.27347831,3.055 C7.52347831,3.315 7.28547831,3.976 6.73947831,4.532 C6.65547831,4.618 6.56647831,4.697 6.48047831,4.765 C6.85847831,5.002 7.30547831,5.137 7.77847831,5.137 C8.24847831,5.136 8.68747831,5.004 9.06347831,4.779 C8.96847831,4.705 8.87547831,4.624 8.78847831,4.531 C8.24247831,3.972 8.00347831,3.314 8.25447831,3.055 C8.50547831,2.797 9.15247831,3.042 9.69847831,3.601 C9.78847831,3.692 9.86847831,3.786 9.94047831,3.881 C10.1644783,3.496 10.2924783,3.048 10.2924783,2.569 C10.2924783,2.085 10.1614783,1.631 9.93147831,1.244 C9.86947831,1.325 9.79647831,1.409 9.71747831,1.487 C9.17147831,2.047 8.52547831,2.29 8.27447831,2.032 C8.02347831,1.776 8.26047831,1.115 8.80647831,0.556 C8.88147831,0.48 8.95747831,0.41 9.03547831,0.346 C8.66447831,0.125 8.23547831,0 7.77747831,0 C7.32047831,0 6.89147831,0.127 6.52147831,0.346 C6.61047831,0.415 6.69947831,0.496 6.78247831,0.582 C7.32747831,1.142 7.56747831,1.802 7.31547831,2.059 C7.06447831,2.315 6.41847831,2.072 5.87247831,1.515 C5.78347831,1.422 5.70247831,1.329 5.63047831,1.236 C5.40047831,1.624 5.26647831,2.081 5.26647831,2.571 C5.26647831,3.037 5.38947831,3.478 5.60247831,3.856 C5.67247831,3.77 5.74547831,3.683 5.82847831,3.601 L5.82847831,3.601 L5.82847831,3.601 Z" id="Shape"></path>
            </g>
        </g>
    </g>
</svg>