<?xml version="1.0" encoding="UTF-8" standalone="no"?>
<svg width="21px" height="33px" viewBox="0 0 21 33" version="1.1" xmlns="http://www.w3.org/2000/svg" xmlns:xlink="http://www.w3.org/1999/xlink" xmlns:sketch="http://www.bohemiancoding.com/sketch/ns">
    <!-- Generator: Sketch 3.4.2 (15855) - http://www.bohemiancoding.com/sketch -->
    <title>Shape</title>
    <desc>Created with Sketch.</desc>
    <defs></defs>
    <g id="Page-1" stroke="none" stroke-width="1" fill="none" fill-rule="evenodd" sketch:type="MSPage">
        <g id="Shape" sketch:type="MSLayerGroup" transform="translate(0.000000, 1.000000)" stroke-width="0.5" stroke="#4A4A4A" fill="#FFFFFF">
            <path d="M19.36,27.178 L19.267,27.178 L19.267,26.843 C19.267,26.413 18.919,26.065 18.49,26.065 L18.127,26.065 C18.081,25.608 18.062,25.153 18.156,24.727 C18.576,22.837 19.091,20.963 19.677,19.12 C20.642,16.088 21.224,13.056 20.264,9.909 C19.192,6.391 17.066,3.895 13.451,2.812 C13.2,2.737 12.944,2.504 12.801,2.275 C12.287,1.448 11.715,0.689 10.789,0 C10.746,0.409 10.698,0.67 10.696,0.932 C10.693,1.32 10.708,1.71 10.742,2.097 C10.789,2.634 10.624,2.958 10.028,3.006 C9.695,3.032 9.37,3.157 9.058,3.233 C9.058,4.441 9.058,4.441 7.963,4.886 C7.603,5.032 7.222,5.142 6.89,5.336 C6.622,5.492 6.389,5.727 6.182,5.964 C5.702,6.514 5.302,7.144 4.772,7.636 C3.712,8.62 2.604,9.554 1.481,10.467 C0.997,10.861 0.629,11.217 0.87,11.91 C0.94,12.111 0.844,12.376 0.8,12.608 C0.665,13.322 1.278,14.552 1.937,14.871 C3.498,15.627 4.727,15.419 5.963,14.167 C6.546,13.577 7.185,13.344 8.01,13.629 C9.144,14.021 10.303,14.312 11.658,13.994 C11.391,14.275 11.234,14.446 11.071,14.611 C9.522,16.186 8.026,17.805 6.892,19.716 C5.991,21.235 5.255,22.831 5.285,24.639 C5.293,25.112 5.346,25.585 5.412,26.063 L5.257,26.063 C4.827,26.063 4.479,26.412 4.479,26.841 L4.479,27.176 L4.387,27.176 C3.901,27.176 3.506,27.571 3.506,28.057 L3.506,31.537 L20.241,31.534 L20.241,28.056 C20.241,27.572 19.847,27.178 19.36,27.178 L19.36,27.178 Z" sketch:type="MSShapeGroup"></path>
        </g>
    </g>
</svg>