<?xml version="1.0" encoding="UTF-8" standalone="no"?>
<svg width="15px" height="32px" viewBox="0 0 15 32" version="1.1" xmlns="http://www.w3.org/2000/svg" xmlns:xlink="http://www.w3.org/1999/xlink" xmlns:sketch="http://www.bohemiancoding.com/sketch/ns">
    <!-- Generator: Sketch 3.4.2 (15855) - http://www.bohemiancoding.com/sketch -->
    <title>Shape</title>
    <desc>Created with Sketch.</desc>
    <defs></defs>
    <g id="Page-1" stroke="none" stroke-width="1" fill="none" fill-rule="evenodd" sketch:type="MSPage">
        <g id="Shape" sketch:type="MSLayerGroup" transform="translate(0.000000, 1.000000)" stroke-width="0.5" stroke="#4A4A4A" fill="#FFFFFF">
            <path d="M13.967,29.641 C14.077,29.93 14.113,30.537 14.113,30.537 L0.423,30.537 C0.423,30.537 0.425,29.931 0.553,29.623 C0.661,29.362 0.947,29.121 1.033,29.056 C1.06,28.939 1.084,28.843 1.104,28.765 C0.527,27.972 0.183,26.828 0.267,25.644 C0.354,24.431 1.236,23.207 1.83,22.267 L1.864,22.201 L1.908,22.058 L1.887,22.058 C1.731,22.05 1.346,21.746 1.447,21.37 C1.562,20.896 1.984,20.796 2.134,20.796 L2.241,20.796 C2.289,20.697 2.356,20.579 2.443,20.442 C3.526,17.838 4.776,13.633 5.182,11.125 C4.099,11.125 3.048,11.125 3.008,11.124 C2.9,11.105 1.862,10.542 1.931,9.63 C2.011,8.487 3.074,8.07 3.178,8.07 L5.441,8.07 L5.444,8.038 C4.042,7.357 3.075,5.902 3.075,4.225 C3.075,1.892 4.946,0 7.254,0 C9.562,0 11.433,1.892 11.433,4.225 C11.433,5.904 10.467,7.359 9.064,8.038 L9.066,8.07 L11.296,8.07 C11.4,8.07 12.507,8.487 12.585,9.63 C12.654,10.541 11.573,11.107 11.465,11.121 C11.429,11.122 10.413,11.122 9.323,11.122 C9.739,13.672 11.294,18.305 12.496,20.562 L12.551,20.655 C12.617,20.728 12.562,20.714 12.606,20.794 L12.648,20.794 C12.798,20.794 13.219,20.898 13.335,21.368 C13.436,21.745 13.053,22.049 12.895,22.056 L12.844,22.056 L12.848,22.265 C13.535,23.3 14.197,24.648 14.273,25.877 C14.343,27.009 14.03,27.927 13.484,28.69 C13.506,28.83 13.523,28.959 13.527,29.074 C13.628,29.168 13.879,29.414 13.967,29.641 L13.967,29.641 Z" sketch:type="MSShapeGroup"></path>
        </g>
    </g>
</svg>