<?xml version="1.0" encoding="UTF-8" standalone="no"?>
<svg width="365px" height="74px" viewBox="0 0 365 74" version="1.1" xmlns="http://www.w3.org/2000/svg" xmlns:xlink="http://www.w3.org/1999/xlink" xmlns:sketch="http://www.bohemiancoding.com/sketch/ns">
    <!-- Generator: Sketch 3.4.4 (17249) - http://www.bohemiancoding.com/sketch -->
    <title>Queen’s + Shape + Pawn</title>
    <desc>Created with Sketch.</desc>
    <defs></defs>
    <g id="Page-1" stroke="none" stroke-width="1" fill="none" fill-rule="evenodd" sketch:type="MSPage">
        <g id="180---iPhone-6-Plus-Copy-11" sketch:type="MSArtboardGroup" transform="translate(-42.000000, -45.000000)">
            <g id="Queen’s-+-Shape-+-Pawn" sketch:type="MSLayerGroup" transform="translate(40.000000, 45.000000)">
                <g>
                    <text id="Queen’s" sketch:type="MSTextLayer" font-family="Noto Serif" font-size="48" font-weight="normal" fill="#FFFFFF">
                        <tspan x="0" y="60">Queen’s</tspan>
                    </text>
                    <path d="M207.259163,4.66308063 C207.259163,2.08830958 209.347473,0 211.923981,0 C214.497015,0 216.587062,2.08483486 216.587062,4.66308063 C216.587062,7.24132641 214.50049,9.32789863 211.923981,9.32789863 C209.345735,9.32789863 207.259163,7.23958904 207.259163,4.66308063 L207.259163,4.66308063 L207.259163,4.66308063 Z M205.213517,73.9595166 L197.317976,73.9595166 C197.317976,73.9595166 197.323188,72.8284937 197.566418,72.2621135 C197.807912,71.6992081 198.525443,71.1727873 198.525443,71.1727873 L198.589725,71.1727873 C198.596674,71.0372731 198.61926,70.8843852 198.650533,70.7228105 C197.531671,69.2616887 196.861049,67.1160462 197.024361,64.9009091 C197.185936,62.6579743 198.859016,60.3941911 199.986564,58.6568287 L200.003938,58.6568287 C200.019574,58.5126277 200.040423,58.3840628 200.064746,58.2589727 C199.750283,58.2138013 199.077924,57.6717443 199.262084,56.9959103 C199.479254,56.1272291 200.276704,55.9361192 200.563369,55.9361192 L200.719731,55.9361192 C200.778802,55.7919182 200.856983,55.6372929 200.971649,55.465294 L200.95775,55.465294 C203.82266,50.1315915 206.45129,45.7204284 207.213992,33.8559807 L207.252214,33.8559807 L207.132336,33.5189324 C205.231661,33.5189324 203.511673,33.5189324 203.442178,33.5171951 C203.233695,33.492872 201.755199,32.653726 201.887239,31.3090075 C202.038389,29.6324528 203.569006,29.029588 203.767065,29.029588 L206.458239,29.029588 C206.883893,22.3476923 203.532521,16.3729031 200.89868,14.5191374 C200.057796,13.9266969 198.900713,12.5889278 200.028261,10.9766555 C200.841347,9.81436009 202.062712,9.84563262 202.583921,9.99157106 C203.108604,10.1357721 204.124961,10.9766555 205.315055,10.9766555 C206.513835,10.9766555 207.667443,10.3911644 208.567397,9.73444142 C209.467351,10.3911644 210.565364,11.0930588 211.764144,11.0930588 C212.856945,11.0930588 213.885463,10.4988809 214.740246,9.89601613 L214.913982,9.73444142 L214.945254,9.75355241 L214.96784,9.73617879 L215.3101,10.0037326 C216.138822,10.5440523 217.137806,10.9801303 218.171536,10.9801303 C219.36163,10.9801303 220.376249,10.1392469 220.900933,9.99504578 C221.422141,9.84910734 222.643507,9.81783482 223.456593,10.9801303 C224.584141,12.5924025 223.428795,13.9301716 222.584437,14.5226121 C219.959282,16.3711657 216.621809,22.3216319 217.026615,28.9792045 L217.017928,29.029588 L219.380741,29.029588 C219.577063,29.029588 221.024285,29.7471187 221.177173,31.4271481 C221.305738,32.7683919 219.910636,33.4911346 219.70389,33.5171951 C219.643082,33.5189324 218.133314,33.5189324 216.350781,33.5189324 L216.319508,33.8559807 L216.32472,33.8559807 C217.083947,45.7221658 219.776859,50.2862168 222.603548,55.465294 L222.577487,55.465294 C222.695628,55.6320808 222.787708,55.7901808 222.857203,55.9361192 L222.902374,55.9361192 C223.187302,55.9361192 223.986488,56.1272291 224.203659,56.9959103 C224.393031,57.69433 223.666814,58.2502859 223.369725,58.2624475 L223.347139,58.2624475 C223.315866,58.3927496 223.282856,58.5247892 223.242897,58.653354 L223.279382,58.653354 C224.580666,60.5696647 225.836779,63.0558303 225.98098,65.331775 C226.121707,67.5191142 225.471933,69.2738502 224.349597,70.7314973 C224.396506,70.8826478 224.438202,71.0285862 224.47295,71.1623632 L224.479899,71.1623632 C224.479899,71.1623632 225.202642,71.7582784 225.407651,72.3038102 C225.617872,72.8371805 225.683891,73.9595166 225.683891,73.9595166 L218.792171,73.9595166 C218.77153,73.8414258 218.745327,73.7271002 218.712555,73.641 C218.624555,73.414 218.373555,73.168 218.272555,73.074 C218.268555,72.959 218.251555,72.83 218.229555,72.69 C218.775555,71.927 219.088555,71.009 219.018555,69.877 C218.942555,68.648 218.280555,67.3 217.593555,66.265 L217.589555,66.056 L217.640555,66.056 C217.798555,66.049 218.181555,65.745 218.080555,65.368 C217.964555,64.898 217.543555,64.794 217.393555,64.794 L217.351555,64.794 C217.307555,64.714 217.362555,64.728 217.296555,64.655 L217.241555,64.562 C216.039555,62.305 214.484555,57.672 214.068555,55.122 C215.158555,55.122 216.174555,55.122 216.210555,55.121 C216.318555,55.107 217.399555,54.541 217.330555,53.63 C217.252555,52.487 216.145555,52.07 216.041555,52.07 L213.811555,52.07 L213.809555,52.038 C215.212555,51.359 216.178555,49.904 216.178555,48.225 C216.178555,45.892 214.307555,44 211.999555,44 C209.691555,44 207.820555,45.892 207.820555,48.225 C207.820555,49.902 208.787555,51.357 210.189555,52.038 L210.186555,52.07 L207.923555,52.07 C207.819555,52.07 206.756555,52.487 206.676555,53.63 C206.607555,54.542 207.645555,55.105 207.753555,55.124 C207.793555,55.125 208.844555,55.125 209.927555,55.125 C209.521555,57.633 208.271555,61.838 207.188555,64.442 C207.101555,64.579 207.034555,64.697 206.986555,64.796 L206.879555,64.796 C206.729555,64.796 206.307555,64.896 206.192555,65.37 C206.091555,65.746 206.476555,66.05 206.632555,66.058 L206.653555,66.058 L206.609555,66.201 L206.575555,66.267 C205.981555,67.207 205.099555,68.431 205.012555,69.644 C204.928555,70.828 205.272555,71.972 205.849555,72.765 C205.829555,72.843 205.805555,72.939 205.778555,73.056 C205.692555,73.121 205.406555,73.362 205.298555,73.623 C205.259812,73.7162265 205.232612,73.836755 205.213517,73.9595166 Z" id="Shape" fill="#4A4A4A" sketch:type="MSShapeGroup"></path>
                    <text id="Pawn" sketch:type="MSTextLayer" font-family="Noto Serif" font-size="48" font-weight="normal" fill="#FFFFFF">
                        <tspan x="240" y="60">Pawn</tspan>
                    </text>
                </g>
            </g>
        </g>
    </g>
</svg>