<?xml version="1.0" encoding="UTF-8" standalone="no"?>
<svg width="18px" height="44px" viewBox="0 0 18 44" version="1.1" xmlns="http://www.w3.org/2000/svg" xmlns:xlink="http://www.w3.org/1999/xlink" xmlns:sketch="http://www.bohemiancoding.com/sketch/ns">
    <!-- Generator: Sketch 3.4.2 (15855) - http://www.bohemiancoding.com/sketch -->
    <title>Shape</title>
    <desc>Created with Sketch.</desc>
    <defs></defs>
    <g id="Page-1" stroke="none" stroke-width="1" fill="none" fill-rule="evenodd" sketch:type="MSPage">
        <g id="Shape" sketch:type="MSLayerGroup" transform="translate(0.000000, 1.000000)" stroke-width="0.3" stroke="#4A4A4A" fill="#000000">
            <path d="M6.844,2.684 C6.844,1.202 8.046,0 9.529,0 C11.01,0 12.213,1.2 12.213,2.684 C12.213,4.168 11.012,5.369 9.529,5.369 C8.045,5.369 6.844,4.167 6.844,2.684 L6.844,2.684 Z M16.756,40.96 L16.752,40.96 C16.732,40.883 16.708,40.799 16.681,40.712 C17.327,39.873 17.701,38.863 17.62,37.604 C17.537,36.294 16.814,34.863 16.065,33.76 L16.044,33.76 C16.067,33.686 16.086,33.61 16.104,33.535 L16.117,33.535 C16.288,33.528 16.706,33.208 16.597,32.806 C16.472,32.306 16.012,32.196 15.848,32.196 L15.822,32.196 C15.782,32.112 15.729,32.021 15.661,31.925 L15.676,31.925 C14.049,28.944 12.499,26.317 12.062,19.487 L12.059,19.487 L12.077,19.293 C13.103,19.293 13.972,19.293 14.007,19.292 C14.126,19.277 14.929,18.861 14.855,18.089 C14.767,17.122 13.934,16.709 13.821,16.709 L12.461,16.709 L12.466,16.68 C12.233,12.848 14.154,9.423 15.665,8.359 C16.151,8.018 16.816,7.248 16.167,6.32 C15.699,5.651 14.996,5.669 14.696,5.753 C14.394,5.836 13.81,6.32 13.125,6.32 C12.53,6.32 11.955,6.069 11.478,5.758 L11.281,5.604 L11.268,5.614 L11.25,5.603 L11.15,5.696 C10.658,6.043 10.066,6.385 9.437,6.385 C8.747,6.385 8.115,5.981 7.597,5.603 C7.079,5.981 6.415,6.318 5.725,6.318 C5.04,6.318 4.455,5.834 4.153,5.751 C3.853,5.667 3.15,5.649 2.682,6.318 C2.033,7.246 2.699,8.016 3.183,8.357 C4.699,9.424 6.628,12.863 6.383,16.709 L4.834,16.709 C4.72,16.709 3.839,17.056 3.752,18.021 C3.676,18.795 4.527,19.278 4.647,19.292 C4.687,19.293 5.677,19.293 6.771,19.293 L6.84,19.487 L6.818,19.487 C6.379,26.316 4.866,28.855 3.217,31.925 L3.225,31.925 C3.159,32.024 3.114,32.113 3.08,32.196 L2.99,32.196 C2.825,32.196 2.366,32.306 2.241,32.806 C2.135,33.195 2.522,33.507 2.703,33.533 C2.689,33.605 2.677,33.679 2.668,33.762 L2.658,33.762 C2.009,34.762 1.046,36.065 0.953,37.356 C0.859,38.631 1.245,39.866 1.889,40.707 C1.871,40.8 1.858,40.888 1.854,40.966 L1.817,40.966 C1.817,40.966 1.404,41.269 1.265,41.593 C1.125,41.919 1.122,42.57 1.122,42.57 L17.449,42.57 C17.449,42.57 17.411,41.924 17.29,41.617 C17.172,41.303 16.756,40.96 16.756,40.96 L16.756,40.96 Z" sketch:type="MSShapeGroup"></path>
        </g>
    </g>
</svg>