<?xml version="1.0" encoding="UTF-8" standalone="no"?>
<svg width="25px" height="35px" viewBox="0 0 25 35" version="1.1" xmlns="http://www.w3.org/2000/svg" xmlns:xlink="http://www.w3.org/1999/xlink" xmlns:sketch="http://www.bohemiancoding.com/sketch/ns">
    <!-- Generator: Sketch 3.4.4 (17249) - http://www.bohemiancoding.com/sketch -->
    <title>Shape</title>
    <desc>Created with Sketch.</desc>
    <defs></defs>
    <g id="Page-1" stroke="none" stroke-width="1" fill="none" fill-rule="evenodd" sketch:type="MSPage">
        <g id="rook_black" sketch:type="MSLayerGroup" transform="translate(0.000000, 1.000000)" stroke-width="0.5" stroke="#787878" fill="#000000">
            <g id="Page-1" sketch:type="MSShapeGroup">
                <g id="Shape">
                    <g id="Group">
                        <path d="M24.032,32.193 C24.201,32.568 24.382,33.217 24.382,33.217 L0.802,33.217 C0.802,33.217 0.994,32.454 1.192,32.06 C1.383,31.67 2.178,31.001 2.19,30.978 C1.267,29.953 0.49,28.635 0.623,27.066 C0.753,25.49 3.908,22.295 3.926,22.212 L3.615,22.212 C3.384,22.201 2.682,21.826 2.831,21.339 C3,20.727 3.756,20.574 3.98,20.574 L4.573,20.574 C4.632,20.476 4.73,20.277 4.73,20.277 L6.239,8.594 L6.246,8.594 L6.109,8.383 C5.895,8.386 4.458,8.293 4.471,7.357 C4.483,6.343 5.851,6.306 5.89,6.203 L5.833,6.203 C5.833,6.203 4.219,5.4 3.112,3.58 C2.004,1.759 1.89,0 1.89,0 L7.216,0 L6.837,2.91 L10.569,2.91 L10.192,0 L14.962,0 L14.585,2.91 L18.317,2.91 L17.938,0 L23.264,0 C23.264,0 23.022,2.103 22.044,3.58 C21.066,5.058 19.243,6.203 19.243,6.203 C19.243,6.203 20.641,6.641 20.812,7.336 C20.958,7.894 19.783,8.341 19.549,8.351 C19.525,8.351 19.34,8.351 19.043,8.353 C19.043,8.353 20.57,20.492 20.584,20.578 L21.381,20.578 C21.604,20.578 22.411,20.711 22.578,21.322 C22.724,21.81 21.975,22.205 21.741,22.216 L21.738,22.216 C21.754,22.302 24.483,25.472 24.598,27.07 C24.708,28.591 23.865,29.974 22.96,30.996 C22.997,31.111 23.862,31.818 24.032,32.193 L24.032,32.193 L24.032,32.193 Z" id="Shape"></path>
                    </g>
                </g>
            </g>
        </g>
    </g>
</svg>